<svg width="559" height="191" viewBox="0 0 559 191" fill="none" xmlns="http://www.w3.org/2000/svg">
<path d="M106.396 60.6572H74.3965V50.6572H106.396C117.442 50.6572 126.396 59.6115 126.396 70.6572V102.657H116.396V70.6572C116.396 65.1344 111.919 60.6572 106.396 60.6572Z" fill="white"/>
<path d="M70.3965 116.657H102.396V126.657H70.3965C59.3508 126.657 50.3965 117.703 50.3965 106.657L50.3965 74.6572H60.3965L60.3965 106.657C60.3965 112.18 64.8736 116.657 70.3965 116.657Z" fill="white"/>
<path fill-rule="evenodd" clip-rule="evenodd" d="M108.396 88.6572C108.396 99.7029 99.4422 108.657 88.3965 108.657C77.3508 108.657 68.3965 99.7029 68.3965 88.6572C68.3965 77.6115 77.3508 68.6572 88.3965 68.6572C99.4422 68.6572 108.396 77.6115 108.396 88.6572ZM98.3965 88.6572C98.3965 94.1801 93.9193 98.6572 88.3965 98.6572C82.8736 98.6572 78.3965 94.1801 78.3965 88.6572C78.3965 83.1344 82.8736 78.6572 88.3965 78.6572C93.9193 78.6572 98.3965 83.1344 98.3965 88.6572Z" fill="white"/>
<path d="M169.071 120.288C165.284 120.288 161.875 119.639 158.844 118.34C155.814 116.988 153.433 115.094 151.702 112.659C149.97 110.224 149.104 107.383 149.104 104.136H159.007C159.223 106.571 160.17 108.573 161.848 110.143C163.579 111.712 165.987 112.497 169.071 112.497C172.264 112.497 174.753 111.739 176.539 110.224C178.324 108.655 179.217 106.653 179.217 104.218C179.217 102.324 178.649 100.782 177.513 99.5911C176.43 98.4006 175.051 97.4807 173.373 96.8314C171.75 96.1821 169.477 95.4786 166.555 94.7211C162.876 93.7471 159.873 92.7731 157.546 91.7991C155.273 90.771 153.325 89.2018 151.702 87.0914C150.078 84.9811 149.267 82.1674 149.267 78.6501C149.267 75.4035 150.078 72.5627 151.702 70.1277C153.325 67.6927 155.598 65.8259 158.52 64.5272C161.442 63.2285 164.824 62.5792 168.666 62.5792C174.131 62.5792 178.595 63.959 182.058 66.7187C185.575 69.4242 187.523 73.1579 187.902 77.9196H177.675C177.513 75.8634 176.539 74.1048 174.753 72.6438C172.967 71.1828 170.614 70.4523 167.692 70.4523C165.04 70.4523 162.876 71.1287 161.198 72.4815C159.521 73.8343 158.682 75.7823 158.682 78.3255C158.682 80.057 159.196 81.491 160.224 82.6273C161.306 83.7095 162.659 84.5753 164.283 85.2246C165.906 85.874 168.124 86.5774 170.938 87.3349C174.672 88.3631 177.702 89.3912 180.029 90.4193C182.41 91.4474 184.412 93.0436 186.035 95.2081C187.713 97.3184 188.551 100.159 188.551 103.731C188.551 106.598 187.767 109.304 186.198 111.847C184.682 114.39 182.437 116.447 179.461 118.016C176.539 119.531 173.076 120.288 169.071 120.288Z" fill="white"/>
<path d="M217.975 74.2672C221.493 74.2672 224.631 74.9977 227.391 76.4587C230.204 77.9196 232.396 80.0841 233.965 82.952C235.534 85.8198 236.319 89.2829 236.319 93.3413V119.72H227.147V94.7211C227.147 90.7169 226.146 87.6596 224.144 85.5493C222.142 83.3848 219.409 82.3026 215.946 82.3026C212.483 82.3026 209.723 83.3848 207.667 85.5493C205.665 87.6596 204.664 90.7169 204.664 94.7211V119.72H195.411V74.9977H204.664V80.1111C206.179 78.2714 208.1 76.8374 210.427 75.8093C212.808 74.7812 215.324 74.2672 217.975 74.2672Z" fill="white"/>
<path d="M240.979 97.1561C240.979 92.6649 241.899 88.6877 243.739 85.2246C245.633 81.7615 248.176 79.083 251.368 77.1892C254.615 75.2412 258.186 74.2672 262.082 74.2672C265.6 74.2672 268.657 74.9706 271.254 76.3775C273.906 77.7303 276.016 79.4348 277.585 81.491V74.9977H286.919V119.72H277.585V113.065C276.016 115.175 273.878 116.934 271.173 118.34C268.467 119.747 265.383 120.451 261.92 120.451C258.078 120.451 254.561 119.477 251.368 117.529C248.176 115.527 245.633 112.767 243.739 109.25C241.899 105.679 240.979 101.647 240.979 97.1561ZM277.585 97.3184C277.585 94.2341 276.936 91.5556 275.637 89.2829C274.393 87.0103 272.742 85.2787 270.686 84.0883C268.63 82.8979 266.411 82.3026 264.03 82.3026C261.649 82.3026 259.431 82.8979 257.375 84.0883C255.318 85.2246 253.641 86.9291 252.342 89.2018C251.098 91.4203 250.476 94.0717 250.476 97.1561C250.476 100.24 251.098 102.946 252.342 105.273C253.641 107.599 255.318 109.385 257.375 110.63C259.485 111.82 261.704 112.415 264.03 112.415C266.411 112.415 268.63 111.82 270.686 110.63C272.742 109.439 274.393 107.708 275.637 105.435C276.936 103.108 277.585 100.403 277.585 97.3184Z" fill="white"/>
<path d="M304.267 81.5721C305.836 79.5159 307.974 77.7844 310.679 76.3775C313.385 74.9706 316.442 74.2672 319.851 74.2672C323.747 74.2672 327.291 75.2412 330.484 77.1892C333.731 79.083 336.274 81.7615 338.114 85.2246C339.953 88.6877 340.873 92.6649 340.873 97.1561C340.873 101.647 339.953 105.679 338.114 109.25C336.274 112.767 333.731 115.527 330.484 117.529C327.291 119.477 323.747 120.451 319.851 120.451C316.442 120.451 313.412 119.774 310.761 118.422C308.109 117.015 305.945 115.283 304.267 113.227V140.986H295.014V74.9977H304.267V81.5721ZM331.458 97.1561C331.458 94.0717 330.809 91.4203 329.51 89.2018C328.265 86.9291 326.588 85.2246 324.478 84.0883C322.421 82.8979 320.203 82.3026 317.822 82.3026C315.495 82.3026 313.277 82.8979 311.166 84.0883C309.11 85.2787 307.433 87.0103 306.134 89.2829C304.89 91.5556 304.267 94.2341 304.267 97.3184C304.267 100.403 304.89 103.108 306.134 105.435C307.433 107.708 309.11 109.439 311.166 110.63C313.277 111.82 315.495 112.415 317.822 112.415C320.203 112.415 322.421 111.82 324.478 110.63C326.588 109.385 328.265 107.599 329.51 105.273C330.809 102.946 331.458 100.24 331.458 97.1561Z" fill="white"/>
<path d="M364.552 120.288C360.765 120.288 357.356 119.639 354.325 118.34C351.295 116.988 348.914 115.094 347.183 112.659C345.451 110.224 344.585 107.383 344.585 104.136H354.488C354.704 106.571 355.651 108.573 357.328 110.143C359.06 111.712 361.468 112.497 364.552 112.497C367.745 112.497 370.234 111.739 372.02 110.224C373.805 108.655 374.698 106.653 374.698 104.218C374.698 102.324 374.13 100.782 372.994 99.5911C371.911 98.4006 370.532 97.4807 368.854 96.8314C367.231 96.1821 364.958 95.4786 362.036 94.7211C358.357 93.7471 355.353 92.7731 353.027 91.7991C350.754 90.771 348.806 89.2018 347.183 87.0914C345.559 84.9811 344.748 82.1674 344.748 78.6501C344.748 75.4035 345.559 72.5627 347.183 70.1277C348.806 67.6927 351.079 65.8259 354.001 64.5272C356.923 63.2285 360.305 62.5792 364.146 62.5792C369.612 62.5792 374.076 63.959 377.539 66.7187C381.056 69.4242 383.004 73.1579 383.383 77.9196H373.156C372.994 75.8634 372.02 74.1048 370.234 72.6438C368.448 71.1828 366.094 70.4523 363.172 70.4523C360.521 70.4523 358.357 71.1287 356.679 72.4815C355.002 73.8343 354.163 75.7823 354.163 78.3255C354.163 80.057 354.677 81.491 355.705 82.6273C356.787 83.7095 358.14 84.5753 359.763 85.2246C361.387 85.874 363.605 86.5774 366.419 87.3349C370.153 88.3631 373.183 89.3912 375.51 90.4193C377.891 91.4474 379.893 93.0436 381.516 95.2081C383.194 97.3184 384.032 100.159 384.032 103.731C384.032 106.598 383.248 109.304 381.678 111.847C380.163 114.39 377.918 116.447 374.942 118.016C372.02 119.531 368.556 120.288 364.552 120.288Z" fill="white"/>
<path d="M414.024 74.2672C417.433 74.2672 420.464 74.9977 423.115 76.4587C425.821 77.9196 427.931 80.0841 429.446 82.952C431.015 85.8198 431.8 89.2829 431.8 93.3413V119.72H422.628V94.7211C422.628 90.7169 421.627 87.6596 419.625 85.5493C417.623 83.3848 414.89 82.3026 411.427 82.3026C407.964 82.3026 405.204 83.3848 403.148 85.5493C401.146 87.6596 400.145 90.7169 400.145 94.7211V119.72H390.892V59.6572H400.145V80.1923C401.714 78.2984 403.689 76.8374 406.07 75.8093C408.505 74.7812 411.157 74.2672 414.024 74.2672Z" fill="white"/>
<path d="M458.943 120.451C454.722 120.451 450.908 119.504 447.499 117.61C444.09 115.662 441.411 112.956 439.463 109.493C437.515 105.976 436.541 101.918 436.541 97.3184C436.541 92.7731 437.542 88.7418 439.544 85.2246C441.546 81.7074 444.279 79.0019 447.742 77.108C451.205 75.2141 455.074 74.2672 459.349 74.2672C463.624 74.2672 467.493 75.2141 470.956 77.108C474.419 79.0019 477.151 81.7074 479.153 85.2246C481.156 88.7418 482.157 92.7731 482.157 97.3184C482.157 101.864 481.129 105.895 479.072 109.412C477.016 112.929 474.202 115.662 470.631 117.61C467.114 119.504 463.218 120.451 458.943 120.451ZM458.943 112.415C461.324 112.415 463.542 111.847 465.599 110.711C467.709 109.575 469.413 107.87 470.712 105.597C472.011 103.325 472.66 100.565 472.66 97.3184C472.66 94.0718 472.038 91.3392 470.793 89.1206C469.549 86.8479 467.898 85.1435 465.842 84.0071C463.786 82.8708 461.567 82.3026 459.187 82.3026C456.806 82.3026 454.587 82.8708 452.531 84.0071C450.529 85.1435 448.933 86.8479 447.742 89.1206C446.552 91.3392 445.956 94.0718 445.956 97.3184C445.956 102.134 447.174 105.868 449.609 108.519C452.098 111.117 455.209 112.415 458.943 112.415Z" fill="white"/>
<path d="M498.04 82.5461V107.302C498.04 108.979 498.419 110.197 499.177 110.954C499.988 111.658 501.341 112.01 503.235 112.01H508.917V119.72H501.612C497.445 119.72 494.253 118.746 492.034 116.798C489.816 114.85 488.706 111.685 488.706 107.302V82.5461H483.431V74.9977H488.706V63.8779H498.04V74.9977H508.917V82.5461H498.04Z" fill="white"/>
</svg>
