<svg width="559" height="191" viewBox="0 0 559 191" fill="none" xmlns="http://www.w3.org/2000/svg">
<path d="M106.396 60.3286H74.3965V50.3286H106.396C117.442 50.3286 126.396 59.2829 126.396 70.3286V102.329H116.396V70.3286C116.396 64.8058 111.919 60.3286 106.396 60.3286Z" fill="black"/>
<path d="M70.3965 116.329H102.396V126.329H70.3965C59.3508 126.329 50.3965 117.374 50.3965 106.329L50.3965 74.3286H60.3965L60.3965 106.329C60.3965 111.851 64.8736 116.329 70.3965 116.329Z" fill="black"/>
<path fill-rule="evenodd" clip-rule="evenodd" d="M108.396 88.3286C108.396 99.3743 99.4422 108.329 88.3965 108.329C77.3508 108.329 68.3965 99.3743 68.3965 88.3286C68.3965 77.2829 77.3508 68.3286 88.3965 68.3286C99.4422 68.3286 108.396 77.2829 108.396 88.3286ZM98.3965 88.3286C98.3965 93.8515 93.9193 98.3286 88.3965 98.3286C82.8736 98.3286 78.3965 93.8515 78.3965 88.3286C78.3965 82.8058 82.8736 78.3286 88.3965 78.3286C93.9193 78.3286 98.3965 82.8058 98.3965 88.3286Z" fill="black"/>
<path d="M169.071 119.96C165.284 119.96 161.875 119.311 158.844 118.012C155.814 116.659 153.433 114.765 151.702 112.33C149.97 109.895 149.104 107.054 149.104 103.808H159.007C159.223 106.243 160.17 108.245 161.848 109.814C163.579 111.383 165.987 112.168 169.071 112.168C172.264 112.168 174.753 111.41 176.539 109.895C178.324 108.326 179.217 106.324 179.217 103.889C179.217 101.995 178.649 100.453 177.513 99.2625C176.43 98.072 175.051 97.1521 173.373 96.5028C171.75 95.8535 169.477 95.15 166.555 94.3925C162.876 93.4185 159.873 92.4445 157.546 91.4705C155.273 90.4424 153.325 88.8732 151.702 86.7628C150.078 84.6525 149.267 81.8387 149.267 78.3215C149.267 75.0749 150.078 72.2341 151.702 69.7991C153.325 67.3641 155.598 65.4973 158.52 64.1986C161.442 62.8999 164.824 62.2506 168.666 62.2506C174.131 62.2506 178.595 63.6304 182.058 66.3901C185.575 69.0956 187.523 72.8293 187.902 77.591H177.675C177.513 75.5348 176.539 73.7762 174.753 72.3152C172.967 70.8542 170.614 70.1237 167.692 70.1237C165.04 70.1237 162.876 70.8001 161.198 72.1529C159.521 73.5057 158.682 75.4537 158.682 77.9969C158.682 79.7284 159.196 81.1624 160.224 82.2987C161.306 83.3809 162.659 84.2467 164.283 84.896C165.906 85.5453 168.124 86.2488 170.938 87.0063C174.672 88.0344 177.702 89.0625 180.029 90.0907C182.41 91.1188 184.412 92.715 186.035 94.8795C187.713 96.9898 188.551 99.8306 188.551 103.402C188.551 106.27 187.767 108.975 186.198 111.519C184.682 114.062 182.437 116.118 179.461 117.687C176.539 119.202 173.076 119.96 169.071 119.96Z" fill="black"/>
<path d="M217.975 73.9386C221.493 73.9386 224.631 74.669 227.391 76.13C230.204 77.591 232.396 79.7555 233.965 82.6234C235.534 85.4912 236.319 88.9543 236.319 93.0126V119.392H227.147V94.3925C227.147 90.3883 226.146 87.331 224.144 85.2207C222.142 83.0562 219.409 81.974 215.946 81.974C212.483 81.974 209.723 83.0562 207.667 85.2207C205.665 87.331 204.664 90.3883 204.664 94.3925V119.392H195.411V74.6691H204.664V79.7825C206.179 77.9428 208.1 76.5088 210.427 75.4807C212.808 74.4526 215.324 73.9386 217.975 73.9386Z" fill="black"/>
<path d="M240.979 96.8275C240.979 92.3362 241.899 88.3591 243.739 84.896C245.633 81.4329 248.176 78.7544 251.368 76.8605C254.615 74.9126 258.186 73.9386 262.082 73.9386C265.6 73.9386 268.657 74.642 271.254 76.0489C273.906 77.4016 276.016 79.1061 277.585 81.1624V74.6691H286.919V119.392H277.585V112.736C276.016 114.846 273.878 116.605 271.173 118.012C268.467 119.419 265.383 120.122 261.92 120.122C258.078 120.122 254.561 119.148 251.368 117.2C248.176 115.198 245.633 112.438 243.739 108.921C241.899 105.35 240.979 101.319 240.979 96.8275ZM277.585 96.9898C277.585 93.9055 276.936 91.227 275.637 88.9543C274.393 86.6817 272.742 84.9501 270.686 83.7597C268.63 82.5692 266.411 81.974 264.03 81.974C261.649 81.974 259.431 82.5692 257.375 83.7597C255.318 84.896 253.641 86.6005 252.342 88.8732C251.098 91.0917 250.476 93.7431 250.476 96.8275C250.476 99.9118 251.098 102.617 252.342 104.944C253.641 107.271 255.318 109.057 257.375 110.301C259.485 111.492 261.704 112.087 264.03 112.087C266.411 112.087 268.63 111.492 270.686 110.301C272.742 109.111 274.393 107.379 275.637 105.106C276.936 102.78 277.585 100.074 277.585 96.9898Z" fill="black"/>
<path d="M304.267 81.2435C305.836 79.1873 307.974 77.4558 310.679 76.0489C313.385 74.642 316.442 73.9386 319.851 73.9386C323.747 73.9386 327.291 74.9126 330.484 76.8605C333.731 78.7544 336.274 81.4329 338.114 84.896C339.953 88.3591 340.873 92.3362 340.873 96.8275C340.873 101.319 339.953 105.35 338.114 108.921C336.274 112.438 333.731 115.198 330.484 117.2C327.291 119.148 323.747 120.122 319.851 120.122C316.442 120.122 313.412 119.446 310.761 118.093C308.109 116.686 305.945 114.955 304.267 112.898V140.657H295.014V74.6691H304.267V81.2435ZM331.458 96.8275C331.458 93.7431 330.809 91.0917 329.51 88.8732C328.265 86.6005 326.588 84.896 324.478 83.7597C322.421 82.5692 320.203 81.974 317.822 81.974C315.495 81.974 313.277 82.5692 311.166 83.7597C309.11 84.9501 307.433 86.6817 306.134 88.9543C304.89 91.227 304.267 93.9055 304.267 96.9898C304.267 100.074 304.89 102.78 306.134 105.106C307.433 107.379 309.11 109.111 311.166 110.301C313.277 111.492 315.495 112.087 317.822 112.087C320.203 112.087 322.421 111.492 324.478 110.301C326.588 109.057 328.265 107.271 329.51 104.944C330.809 102.617 331.458 99.9118 331.458 96.8275Z" fill="black"/>
<path d="M364.552 119.96C360.765 119.96 357.356 119.311 354.325 118.012C351.295 116.659 348.914 114.765 347.183 112.33C345.451 109.895 344.585 107.054 344.585 103.808H354.488C354.704 106.243 355.651 108.245 357.328 109.814C359.06 111.383 361.468 112.168 364.552 112.168C367.745 112.168 370.234 111.41 372.02 109.895C373.805 108.326 374.698 106.324 374.698 103.889C374.698 101.995 374.13 100.453 372.994 99.2625C371.911 98.072 370.532 97.1521 368.854 96.5028C367.231 95.8535 364.958 95.15 362.036 94.3925C358.357 93.4185 355.353 92.4445 353.027 91.4705C350.754 90.4424 348.806 88.8732 347.183 86.7628C345.559 84.6525 344.748 81.8387 344.748 78.3215C344.748 75.0749 345.559 72.2341 347.183 69.7991C348.806 67.3641 351.079 65.4973 354.001 64.1986C356.923 62.8999 360.305 62.2506 364.146 62.2506C369.612 62.2506 374.076 63.6304 377.539 66.3901C381.056 69.0956 383.004 72.8293 383.383 77.591H373.156C372.994 75.5348 372.02 73.7762 370.234 72.3152C368.448 70.8542 366.094 70.1237 363.172 70.1237C360.521 70.1237 358.357 70.8001 356.679 72.1529C355.002 73.5057 354.163 75.4537 354.163 77.9969C354.163 79.7284 354.677 81.1624 355.705 82.2987C356.787 83.3809 358.14 84.2467 359.763 84.896C361.387 85.5453 363.605 86.2488 366.419 87.0063C370.153 88.0344 373.183 89.0625 375.51 90.0907C377.891 91.1188 379.893 92.715 381.516 94.8795C383.194 96.9898 384.032 99.8306 384.032 103.402C384.032 106.27 383.248 108.975 381.678 111.519C380.163 114.062 377.918 116.118 374.942 117.687C372.02 119.202 368.556 119.96 364.552 119.96Z" fill="black"/>
<path d="M414.024 73.9386C417.433 73.9386 420.464 74.669 423.115 76.13C425.821 77.591 427.931 79.7555 429.446 82.6234C431.015 85.4912 431.8 88.9543 431.8 93.0126V119.392H422.628V94.3925C422.628 90.3883 421.627 87.331 419.625 85.2207C417.623 83.0562 414.89 81.974 411.427 81.974C407.964 81.974 405.204 83.0562 403.148 85.2207C401.146 87.331 400.145 90.3883 400.145 94.3925V119.392H390.892V59.3286H400.145V79.8637C401.714 77.9698 403.689 76.5088 406.07 75.4807C408.505 74.4526 411.157 73.9386 414.024 73.9386Z" fill="black"/>
<path d="M458.943 120.122C454.722 120.122 450.908 119.175 447.499 117.281C444.09 115.333 441.411 112.628 439.463 109.165C437.515 105.648 436.541 101.589 436.541 96.9898C436.541 92.4445 437.542 88.4132 439.544 84.896C441.546 81.3788 444.279 78.6733 447.742 76.7794C451.205 74.8855 455.074 73.9386 459.349 73.9386C463.624 73.9386 467.493 74.8855 470.956 76.7794C474.419 78.6733 477.151 81.3788 479.153 84.896C481.156 88.4132 482.157 92.4445 482.157 96.9898C482.157 101.535 481.129 105.566 479.072 109.084C477.016 112.601 474.202 115.333 470.631 117.281C467.114 119.175 463.218 120.122 458.943 120.122ZM458.943 112.087C461.324 112.087 463.542 111.519 465.599 110.382C467.709 109.246 469.413 107.541 470.712 105.269C472.011 102.996 472.66 100.236 472.66 96.9898C472.66 93.7431 472.038 91.0105 470.793 88.792C469.549 86.5193 467.898 84.8148 465.842 83.6785C463.786 82.5422 461.567 81.974 459.187 81.974C456.806 81.974 454.587 82.5422 452.531 83.6785C450.529 84.8148 448.933 86.5193 447.742 88.792C446.552 91.0105 445.956 93.7431 445.956 96.9898C445.956 101.806 447.174 105.539 449.609 108.191C452.098 110.788 455.209 112.087 458.943 112.087Z" fill="black"/>
<path d="M498.04 82.2175V106.973C498.04 108.651 498.419 109.868 499.177 110.626C499.988 111.329 501.341 111.681 503.235 111.681H508.917V119.392H501.612C497.445 119.392 494.253 118.418 492.034 116.47C489.816 114.522 488.706 111.356 488.706 106.973V82.2175H483.431V74.6691H488.706V63.5493H498.04V74.6691H508.917V82.2175H498.04Z" fill="black"/>
</svg>
