<svg viewBox="0 0 150 150" fill="none" xmlns="http://www.w3.org/2000/svg">
<path d="M106.396 60H74.3965V50H106.396C117.442 50 126.396 58.9543 126.396 70V102H116.396V70C116.396 64.4772 111.919 60 106.396 60Z" fill="#FFC700"/>
<path d="M70.3965 116H102.396V126H70.3965C59.3508 126 50.3965 117.046 50.3965 106L50.3965 74H60.3965L60.3965 106C60.3965 111.523 64.8736 116 70.3965 116Z" fill="#FFC700"/>
<path fill-rule="evenodd" clip-rule="evenodd" d="M108.396 88C108.396 99.0457 99.4422 108 88.3965 108C77.3508 108 68.3965 99.0457 68.3965 88C68.3965 76.9543 77.3508 68 88.3965 68C99.4422 68 108.396 76.9543 108.396 88ZM98.3965 88C98.3965 93.5229 93.9193 98 88.3965 98C82.8736 98 78.3965 93.5229 78.3965 88C78.3965 82.4772 82.8736 78 88.3965 78C93.9193 78 98.3965 82.4772 98.3965 88Z" fill="#FFC700"/>
</svg>
